<mxfile host="app.diagrams.net" agent="Mozilla/5.0 (Windows NT 10.0; Win64; x64) AppleWebKit/537.36 (KHTML, like Gecko) Chrome/128.0.0.0 Safari/537.36" version="24.7.8">
  <diagram name="PÃ¡gina-1" id="4bHUg99wC0YCEnvAVeCM">
    <mxGraphModel dx="1075" dy="478" grid="1" gridSize="10" guides="1" tooltips="1" connect="1" arrows="1" fold="1" page="1" pageScale="1" pageWidth="827" pageHeight="1169" math="0" shadow="0">
      <root>
        <mxCell id="0" />
        <mxCell id="1" parent="0" />
        <mxCell id="-RhzpEMc9GSsOyCqDzCZ-4" value="" style="shape=image;imageAspect=0;aspect=fixed;verticalLabelPosition=bottom;verticalAlign=top;image=data:image/png,iVBORw0KGgoAAAANSUhEUgAAAgAAAAIACAYAAAD0eNT6AAAAAXNSR0IArs4c6QAAAARnQU1BAACxjwv8YQUAAAAJcEhZcwAADsMAAA7DAcdvqGQAADuySURBVHhe7Z0tmB03tnbvRRcOHGg4cGBgYGBgYGBgYGCYoWGgoaGhoaGhoaFhoGHo972rO5o56ajb3a2zq6SqtZ7nJUlbpfo50qutLel/RERERERERERERERERERERERERERERERERERERERERERERERERERERERERERERERERERERERERERERERERERERERERERERERERERERERERERERERERPbmRfTtI/Vj9Osj9VPUK6Onf0UiIiLyFf4vuuxAf4guO9830fsL/fG///u//29V3bmXt9HlvWJKLp/FPyIREZEl+GdE5/Vd1Dq219Flx/el1zmq+5Vn9sedZ4gxas/3+4hnTgRERETk6jAibaPT1vkwiqVD+r3XcantlXfx5c938i5q7wlDxnvDoImIiPyFb6Je5/6519GodZV3+vuf77ZnEkRE5KDQyLckODqAT71OQp1X+SY+RxgEvpGWBEm+hoiITE4L19N4v4wcyath5RtqkYNX0c8R35jJiiIiO9CS7n6JaJRpnE2yU5sq31xLUvwtImrAN2lSoojIlWhL5mhgmZ838U5NrXyjJCS2PANyDIwWiIg8gn9HhPBZRvex18AqtZryLX+KWMbIFAKJpyIip4ZwKeu5b+brew2nUkdVvvkPEVNYbATlbooiclgM5Sv1gPKbcOpARA4DoU4asw+9Bk8p9bDy2/kYESHDEIiITAthTObvGeEvvX+9UjMqvysiBOQRkCsjIrIbhCiZvyRhz/X2Sm2o/ObYn4DEQja4crtjESmHUCQhSTP0lZpI+U2y0oCkQhJr3cFQRIYhrE/IkdCjYX2lFlF+r2xSxGZZTheIyKOh0yd5z/3ylTqA8lvmnAOiA5oBEfkbdvpKnUD5jWsGRMROX6kzK799zYDIibDTV0r9TWkTNAMiB8ROX/1F+RbYYIYksUu5YZO6Ub4FzYDIwrBGn0157PQXUt4X+8NfdsrtqNmmdh79Xe3RUGMse3Xhu7usMx3J5T157sNCyvvCDLCawL0GRCaHRplOw/PxJ1DeQ+v02CyJzpCGtHWUngr3XzAw7blgcnhWfMft+bkEdQLlPfAd+92KTASbfrAbmCHcjZRn3ULo7MTWRrpskkQHhgmTGjhBshmF9tzplHgXfv8bKc+aTYeI9HhgkchO0BiyK58n6xUoz5VOhXMN6GQwWHQ6Nnjz006eZJtq3h0mzShCgXimEQZM0yuyETRs73o/SPV45RnSeF2O4nmudBxuo3pcmjlgu9zL6IFTZoPKMyR/BaPs70fkypCAw/yxh+48UXlmHJpCI28nL1/j0hyw/bW/tycqz+xLRP4GEUoRGYDkqDe9H5r6u/Ks6OhpfFq2vCF7uQZ8S8x5txUNTic8QnlOmChyY0TkCdDgGOa/R3k2JCG1+XlGbM5Byta0hES+QaaRPCHzHvFsIn6nIvIA/EjMZr5QngfrkGlg26heZGZYJke0gPwC9+G4UJ4Hv2XyBETkAn4UNhZRngPJRKxuwAy5+YisDtNQhMGJFDh9EOUZkJeDoTcXR04NndxpE41y7zQEhPLbBjkiZ4DcntNHCXLvzQiInAo6/tPNGXLPEYlUZOObJSxyC5Eu2gQiX6fbKjn37NSAnAJGuaeZ48+94vAZ5dDhm5Ev8jgIjWMIWNFymghB7lUjIIeELPVTZPVznxFhPU8SE7kORMuYMmC67PCbFuUeiRQ6JSjLw6j3Ve8jP4pyfyzJI6xPopNJPSL1sNKA6YJDTyPm/jA8JgLLkuDYD7dPf+6Jnb5Ylsf9OY8vsi8MMphiY6rtiO0NW3azgsLBhSwB7vxQzjz3w1w+85GG5UTmhqk3InKHyh3I/dAGYXREpgQn/rr38a6o3AsJOTQknv8tsibkHjF6PowZyL2QY+S0gEwFznT58Fvuoc3nm8AnciwwAyTnLh+dzD0wLcDeISK7ghNdOrs/9afTZ5Tgfvoi54DcHczA0kuSqX9kuyW7wA9oyW09U286fepvEp/IuWEQQ0LvsmYgdWdFhMgmLDnqT50Jm5Ep7Jy+iPRgNE2y73J7DaTORgOkHHbnWurHkfoy2sfhuxOfiDwGltyxI99SUYHUl0GOOwnK1Vkqwz91dbQvItdguahA6upKAbkaZMQvsYyGekaO9kXk2iwVFUg92TfAfUtkCJb3TZ3oR/0iR/sishXLRAVSR5KdRZ7M1Hv4p35syUv2q6EuEdkDogJ0sFPvgZL6sXW5WwnLoyB8Pu2Z3KkboS02wTDMLyIz0KYHPvfarBmUunHCoMue5UH4QKb8iKlXhNvWyYrIrGAEptxtMPUiampegHQh2W+6Oa3UicQ+l7aIyEqwZHq6hMHUiZwpDxWSv8BZ9lMl+6U+hKz4EYmIrAoj7ummVFMnkwPlhh97H8heSn3eR4apRORIEGF922vz9lLqw8FncmJ+7X0Yeyh1YY7fEb+IHBkGN9NMDaQuLKGWEzJF5596kNVvOEpEzgSDnSkSrlMPTcDJ2L3zTx1IRmEdv8v5ROSsMPjZPfk6ddAEnIQZOn/m+T25SkTkdjOz3c9aoQ43tZHDsmvnn+sT7ncJiojI32E11q7nruT6moCD8lPvhW+lXJ+MU8P9IiL3w0Znv0a7LcvOtV0dcDB2W+ef63oqlYjI02CKdLdoQK5tYvZB4EPaJckk1yWc5KhfROTpEA142Wtbt1CuzcBRFobkks2XmuSa7Dntmn4RkXE46nzzaECuyUotNjCSRdl8C8pc80PkEb0iIteDSOqbXptbqVyTDdqM4i7I5hn/uSbJI57WJyJSw8+9trdSuebb20vLKnzbe5FVyvUI+bu8T0SkHqYEfu+1xVXK9UwKXATC75t9HLkWISI39RER2Q7a+Y+9NrlCuRb5ABgPmZzN5v1zLY7sdb5fRGR7mJt/12ubK5RrMdhzindifui9uArlWu8ik0NERPaDDnmzbYRzLc5vkQnhQ9gk9J/rsL5fJygiMgeb7BeQ67g0cFJe9V7YtZXruFe0iMh8bLLyK9fhMDeZiH/3XtS1leu4HEREZF62Ggi66msiPvRe0jWVazDnb9hfRGRuynMCcg3OeLE/mIDvey/omso12N3Ply0isgZve235NZVruDfABJSuBU35OD2X+omIrAMDttLzA1K+UYCdKR39p3w3fxARWZMXUelJsCnfKMCOVI/+f7q9jIiILMh3vbb9Wkr5RgF24pveC7mWUv6b28uIiMjC/NZr46+llO9AcQfKXmrKdt5fROQYMEL/3Gvrr6GUTZK4bAgvtGxuJ2W7xlNE5DiUnhCb8j0QbkPK9vxP2W72IyJyPCqjxq9uLyFbUHbiX8p2n2cRkePBtO4fvXZ/VCmXaWPZAE7gq3qJjv5FRI5L2VbBKfvb20tIJWVr/1O2o38RkeNSGQX49eYKUkrJPs8p19G/iMjxKYkCpFxXA2xAyXKOlPvdbfEiInJg/tXrA66hlM0UtRRRcuxvyjWBQ0TkPJScIJtyXUJeSMnyv5T7223xIiJyAn7p9QWjSrkvb4uXCl72HvqoUq7ZmyIi5+FFry8YVco1l6yQq5/xnDI58c/DHEREzsXV88lS5qfboqWCq5/vnDI/3hYtIiIn4uoDSpRyHVBW0HvYo0qxbuEoInI+fu71CaNKue4nU8D/9R72qFKuRzmKiJyP73p9wqhSrjllBVQlbbj+X0TkfJTsB5ByNQAFVBmAb26LFxGRE1HVp/x4W7xck296D3tUKffFbfEiInImen3CqFKsBqCAb3sPe1QpVwMgInJCen3CqFKsBqAADYCIiFyNXp8wqhSrASigygCYAyAicj7MAViIKgPgKgARkfNRtQpAA1BAlQFwHwARkfNRtQ+ABqCAKgPgToAiIuejaidADUABVQbAswBERM5H1VkAGoACqgyApwGKiJyPq58GiFKuBqCAEgOAKPv2EiIicgJKVgCglK0BKKDSAPx2ewkRETkBv/T6gmsoZWsACqg0AL/fXkJERE7Ah15fcA2lbA1AAWUGAKV89wMQETk+Jev/m1K+BqCAagPw9vYyIiJyYF71+oBrKeVrAAooNQAo1/j37aVEROSA/DP6o9f+X0spXwNQwBYGwCiAiMhxKR39o1xDA1BAuQFAuY5RABGR41E++ke5hgaggK0MgFEAEZHj8Vuvzb+2ch0NQAGbGACUa/1we0kRETkAW/YfGoACtnyB7AtAuEhERNaGrd5Ltv3tKdfSABSwmQFAud6b28uKiMjCbBL6b8r1NAAFbGoAUK750+2lRURkQUrO/H9IuaYGoIA9DAAnBX5zc3UREVmJF9GXXtteqVxTA1DA5gYA5brmA4iIrAXz/p96bXq1cl0NQAG7GACUa3+I+KBERGR+3vba8i2Ua2sACtjNAKBc/12kCRARmZvXvTZ8K+X6GoACdjUAKHXQBIiIzMuunT9KHTQABexuAFDqoQkQEZmP3Tt/lHpoAAqYwgCg1EUTICIyD1N0/ih10QAUMI0BQKnP++gfNzUTEZE9YCD2ptdG76XURwNQwFQGAKVOHyPWmoqIyLYwAHvfa5v3VOqkAShgOgOAUq/P0b9uaigiIlvA3iwfe23y3kq9NAAFTGkAUOr2Jfr+ppYiIlIJu7P+3muLZ1DqpgEoYFoD0JQ6vrqtqoiIFPBzr+2dSamjBqCA6Q0ASj1JDnTrYBGR68F8/1TJfvcp9dQAFLCEAUCpK+cHfHdTaxERGYGQ/y77+j9HqasGoIBlDEBT6vw6cqmgiMjTYYnfy17bOrNSZw1AAcsZAJR6Ew3wSGERkcfDyqplRv2XSr01AAUsaQCaUn8SBI0GiIjcD6P+X6M/eu3oCkrdNQAFLG0AUO6BaMAPN3cjIiKXkDe15Kj/UrkHDUAByxuAptwLZwm4g6CIyO2qqWn28h9V7kUDUMBhDADK/fwREeryUCEROSs/R196beSqyv1oAAo4lAFoyn0xLfDTzR2KiJwDdk793GsTV1fuSwNQQIkBSLlTuM/U41PkdsIicmS+jT702sCtlXqUJBqmXA1AAVUG4N/RNE40dWEnQX4kIiJHgXb2ba/N20OpC+e3VPUpGoACql4WTHeyFPWJjAiIyMowmJnqyN7U5z8nuPb+/6hSrAaggEoDACTjTeNQm1Inpgb8oERkJRi8TBHqvxR1iv6zH0vvb0aVYm2vC6g2AI1Xvb/bW6kXrpVkQVcNiMis0PnNek7/m+gv7Wfv70aVYjUABWxlAOCn3t/OoNSNVQMsnXFXQRGZATpVOr1ps/pTt5dU9C69vx1VitUAFLClAQB2pZp2fSp1i9hHQCMgIntAx89g5PdeGzWDUjf2W7l399XevxlVitUAFLC1AQCSA6ebx7pU6ocR4NRBDxwSkS0gge63aOoNfFI/8qdukv3uo/fvRpViNQAF7GEAGr/2/u1sSj354MkTMCogItekhfmnHhA1pZ4YlK/mS/X+7ahSrAaggD0NADDCnjbUdanUk7CXUQERGWWJ0X4T9YwevXy6V8aoUqwGoIC9DQAwsn7XK2dWpb6sHvglYjpDRORr0M4RSVzqZL7UlyV+T2rneuWMKsVqAAqYwQA0SHxZ7rzq1JllMCQ3iojchYghkcMV27Zulv/X6JU1qhSrAShgJgMAhMaWmA+7q9SbqMCriO05ReS80I6xmmjJc/ipd/Tsqc5emaNKsRqAAmYzAI2lj7NM3TUDIudi6U4fpe7kOTHq/2qi30P0yh5VitUAFDCrAQDmnZbKDegp96AZEDkmy3f6TbkH5vq5n2F65Y8qxWoACpjZADSYX19ipcDXlPtoZsCTCUXWBCPPKHn5Th/lPsjwJznxavSuM6oUqwEoYAUDAGTQvuxda1Xlfth+mKVAmgGRuaHTx7hPuy3vc5T7eRtdfSVT71qjSrEagAJWMQANElOmPBRjRLknXDirCfjIX0Qish90imx1S/b+IaKPl8o9EYksW7nUu+aoUqwGoIDVDECDTSkO5cYvlXsjC5cRB/c5lJAjIo+CDpHQ/uEGGE25NwYaJFiXtim9a48qxWoACljVADSmPjTjWso9vo/YeMhEQpHrQMIb7ce7aLk1+k8R9xdhbjbZzrxXh1GlWA1AAasbAOCjJhP30D/iptyn0wUiT+fQYf379Of9Xn2e/yF69RhVitUAFHAEA9DgI/+tV58jK/fMdAE/cjJ5jRCI3MIIn06DRNvDhvXvU+6ZBL+rLOt7Kr36jCrFagAKOJIBaPDRv+3V6wzKvRPuY8qAqAjzmpuE/UR2htU0TJMR0l92E7FR5d757e+6sqhXr1GlWA1AAUc0AA2MwOte/c6mPIcWJeBHtMuoQOSKMPVFOJ9E2SW3Dr+28hwwPlMsKe7Vb1QpVgNQwJENQIPGgjDgKXIEHqM8C/IIaDCIEtBobDpHKPIEyFhvo3vC2qeZv3+M8jzIB5pq6q9Xz1GlWA1AAWcwAA06OUYMpw0PPiSeS0T4kGxhfmxTjCbkVNCRMbLHmPIt2tl3lOfCNB8RvSmTgHt1HlWK1QAUcCYD0GirBmxcHqE8J6YPGHm1nAJXHsgomHEMJt8UI9jTJek9R3lOdPwMYqaO2PXqPqoUqwEo4IwGoEFokcz5Q+zpvbXy3BihMbXCWmoac42B3KV19PzO6Lj4ZpyKe6LyzNg2nCmQJRJ6e/cwqhSrASjgzAbgEka2b3r3op6mPMePUZtKoNGiAzDx8Lhg/HjHGMEWujcx7wrKcyRPhymRpejdy6hSrAagAA3AX2HEQqd12G2G91SeK9MJzRzQWdBxuHfB/GDgeFf8Nlonb9i+QHmu5OIQLVk2ota7r1GlWA1AARqA+8F5v+vdn7q+8qzb/gWIBpCOpk0vIM9EuD4twx4RpueZY87aezBhdiPlWXMeP53c8t957/5GlWI1AAVoAL4OTpxG0cZwAuU9MB/aOqgWSaBxaB0ZJ0aeHaIq7Xm0rPo2ckdGuCZQ3kPL5j/UN9u711GlWA1AARqAp8HpfGQtm8i0kPK+Wl5CE41u6xTRZaShp8ochjaHfp/ayLyJxMvLe3G+fTHlnbGq5hCj/R69ex5VitUAFKABeB78cPkgT7vlsFLq8UpbgQnFzE29hO8a9O5/VClWA1CABmAcftD8sE2KUkr9R2kTSHolanOqJbK9ZzGqFKsBKEADcF34ofODd28BpU6o/PbJUWGa5rSrW3rPZVQpVgNQgAagDuaNWTblHK1SB1Z+44z0WbliAmroPaNRpVgNQAEagG1gmuAmZyAygVCpxZXfMQmYJI+eKrz/GHrPa1QpVgNQgAZge0ggZDUBmeieR6DUAspvlSV7rACiI1piS9696D2/UaVYDUABGoD9IWxI+NAkQqUmUn6ThPaZz8ewyyPpPctRpVgNQAEagLlgZMHGLTQ6btai1IbKb44EvjbKN7T/THrPdlQpVgNQgAZgbmiEWGJIo+ROhEpdUflNEdbnwB3m8j2T4kr0nvWoUqwGoAANwFrQSLGywDMKlHqG8tthz322kGaXRSmg99xHlWI1AAVUGYBDbnE5ITRiGAJWF5hQqNSF8pvgZD1G+OzNwW/FdmkDeu9iVClWA1BAlQFw/mwfeO7kEJBU6P4D6lTKN892u+TP0FlUnt8gD9B7N6NKsRqAAqoMgPNp82CUQB1O+ZYd3c/JP3rva1QpVwNQQJUBcH5tXlhpwPuh4SS50OWHamrlG2U5HgaWb/a76PAH6izMi947HFXK1QAUUGUAfFnrwX4ErDhg+oBdztyxUG2uP789wvjtiGZH9mthn7IQVS8Lpy7rQ04BI64WLXjfe99KPVX5lsjGbyF88lacNjwGP/be96go97Z4uSZVBoAfthyXNo1AxIAGnFGbUwnqL8o3Qeieb4Nld21Eb4LwsXnd+xZGlXI1AAVUGQASdOSckH1NQ0/iYZtOcEXCQZV3S+Z9C9tjBnn3jubPS8lAIOVqAAooMQAoZdsISA9yDegkGBHSYXAoEh3Ip953pPZT3snnP98N0z+8K0wd7w6J3KVkBQBK2RqAAioNAI2FyFMh6at1Ms0kXBoFzcKA8uxap45aZv3dzt0se3kOP/S+uWsoZWsACqg0AIQGRaq5NAyodWhNdHKtw2tadj+E1J3ptbv305LpLkXyZnsmHl8rW/C2981eQylbA1BAmQFAKd/duGQVGPVeGomHxGj5bof7FPXK7MmEOVkFTGbZ0uGUrQEooNoA0NiJiMixKVn+10T5t5eRa1JtADhf2408RESOTeky4JSvASig1ACgXINELhEROSbf99r+ayrX0AAUsIUBMAogInJcyjcByzU0AAWUGwCU67gkUETkeJTO/TdxndvLyTXZygD8EbkiQETkOLBy5kuvzb+2ch0NQAGbGACUa3H4h4iIHIN3vba+QrmWBqCAzQwAyvWcChARWZ9NQv9NXO/2snJNtjYATAV4RoCIyLqwQdUmof+mXE8DUMCmBgDlmuxF7takIiLrwYquzU/3zDU1AAVsbgBQrsv+5SIishYl5/1/TbmuBqCAXQwAyrU5K15ERNbg515bvoVybQ1AAbsZAJTr+1JFROaH0yXLDvv5mnJt+4oCdjUAKHXwxYqIzMuunT/K9e0nCtjdAKDUw5crIjIfu3f+KHWwjyhgCgOAUpcfbqskIiITMEXnj1IPDUAB0xgAlPp4cqCIyP4wIJui80epiwaggKkMAEqdXB0gIrIfu2X736fUSQNQwHQGAKVebyKPEBYR2ZZXvTZ5b6VeGoACpjQAKHXj8CBOmxIRkVrYnfVtry2eQambBqCAaQ0ASv1+p443NRURkQo4n+VTrw2eRamfBqCAqQ1AU+ppcqCIyPWZKtnvPqWOGoACljAAKHUlL8BDhERExiHH6rdeWzujUlcNQAHLGACU+jIlwNpUERF5Ht9EU4f87yr11QAUsJQBaEq9X0dGA0REHg+j/pe9NnV2pd4agAKWNAAodTdBUETkcSw36r9U6q4BKGBZA9CUeyAa4HJBEZG/Q6R0yVH/pXIPGoACljcAKPfxJfrp5o5ERAS+j37vtZmrKfehASjgEAagKffD5kGsaRUROSsvone9NnJV5X40AAUcygA05b6cFhCRs0GbN+VWvqPKfWkACjikAUC5tz+il5GrBUTkyJDd/2v0pdcWHkG5Nw1AASUGIOX+2vvveyh1IT+AnQQ9XEhEjga5T9PM86cuJZsLpVwNQAFVBgBmO0+aZYO/REYERGRlGMzQ8X/utXV7KfW52bK99/9GlWI1AAVUGgBg7elUYSnqExEuM0dARFaCwQud7FSZ/akP062sOLih9zejSrEagAKqDQCQkTrdBhSpEx/tq0gjICIzQ8c/5Rx/6kRk9S8rr3p/N6oUqwEoYAsDAHzA73t/O4NSN1YNYFRERGbhJqs/mvK0vtTrY/S3drP3t6NKsRqAArYyAMC81eve38+i1I8TB91HQET2hE6VQcm0x/Smbu+ibj5V7+9HlWI1AAVsaQAaJK9Mff506vc28tRBEdkScqamHiSh1JHpiHvp/ZtRpVgNQAF7GAD4VzT9wRSp4+eIvQScHhCRCgjzszpphfaQ+X5MyoP0/u2oUqwGoIC9DABMPyVwqdSVkBdLG0VERiHC+KbX1syo1PXekP9dev9+VClWA1DAngagQae6zA5WqSsu2KiAiDyVNtqfav3+Q0pdWS11s77/sfTKGVWK1QAUMIMBADrTD72yZlbq/D7iw3SXQRG5DwY5b3ttyMxKnT9FT06K7pU1qhSrAShgFgPQWPLc6tSbzYV+i1xBICJAnhORwiWP4029WYXwrIFNr7xRpVgNQAGzGQCgE10uGtCUupM4yNpdzYDIuaDTJ0N++oS++0Tdo2+jZ9Mrd1QpVgNQwIwGoMFywaVPt0r9MQNEBoZ+UCIyLRh9DP+ynT5K/Znrx7wMT2f2yh9VitUAFDCzAQCSZpbJlH1IuQ+SBzUDIuvTOv1lkvkeUu6DXCaiF1ehd41RpVgNQAGzG4AGS2aWdtiXyr1oBkTW4lCdPsq9kLt09Y61d61RpVgNQAGrGAAgNEVSzdS7CD5VuR/MAAk3ZAo/ap2tiJRDe8MJdxj1w3T6Tbkn2pyS9qZ3vVGlWA1AASsZgAZLBg8xLdBT7u1DhNH56o5bInJVGOWzTn/ag8tGxb1FpW1L77qjSrEagAJWNAANfqyH/aGi3B8hOs4lICHSjYdErgs5RnQsHAK25HK9xyr3x8l9/zmzv5Le9UeVYjUABaxsABrkB3zs1eNoyn2yRId5SH7Ibj4k8nRoL4iwnaXNYIpx086zV49RpVgNQAFHMAANPpBDu/i7yv2yPzchS5MJRfoQ7mYrWyJph8ofeki5V6KHtA2bDxR69RlVitUAFHAkAwB87Hz0S+8f8FzlvskfIEJAQqFTBnI2COkTHWOEf+jpwfuU+2Y9P23AbgnFvXqNKsVqAAo4mgFo8PFjBE4VEbgr7j9i5GOUQI5IG90zh3+4TP2nKPffOn5M0K706jeqFKsBKOCoBqBBRIAG4tSNw6XyLIwSyIpg6pm/Z7e6U47ue8qzINTPM5lmCXGvnqNKsRqAAo5uAC7hA9II3FGeCVEClgbRiPCMXH4oe8MKH0L5fJPkufi7vaM8E363DG6mSwbu1XdUKVYDUMCZDECDhuUUGcAj4hlFhFZphJk+MFog14ZRK98WU1RsTLPsIWBbKc+I80XoDKddBdSr96hSrAaggDMagAbhREOJT1CeF/OMRAuYQmBvAvMK5LEQWaIRv0nQi06ZqPtc5XlhyJm2m55e/UeVYjUABZzZADQ4BIPtPm2Qnqk8uzaNwHMkYkCURXNwPujk2zw9JpFvwvD9M5Vnh+EmMrLUtFzvXkaVYjUABWgA/gshNT4ypweuqDxPkpToCGjILs3BtCFMeRDeXevkMXy821Ovtrm28jwJ8zMtMk1i31Po3dOoUqwGoAANQB8cNx3WaTYO2UM834gOpOUaIDoXOhlzDraHJWQ8e9TeB78D3pERsmLlGfM74Ptfmt69jSrFagAK0AA8DA6cuW7DmDsqz58OCLUphravAVpylLQxRFva8yJznGfYQvRIo7uT8uyZPiMv4jCGt3efo0qxGoACNACPh8aT0ZAjoQnFe4lah9bURrFNJFG1jhCR/7EKdBCXdW/L5C7FkrnL+zc0P6nybhjtL5HU91R69zuqFKsBKEAD8Dz44fIDduR0IPE+o8sO9GtqEYnH6HLE/Rj5bR1Mf75XOrJDR6169z6qFKsBKEADMAY/ZD5MlxMqpf6mtA0s32PaZfcterei9xxGlWI1AAVoAK4HP3B+6K4iUOrEShtAFj/z+itNMV2N3jMZVYrVABSgAaiBHz6JapoBpU6g/NY/RUzzsI3xqek9n1GlWA1AARqAeogMsJLgVOeRK3V05ffMwVpE/U450r+P3rMaVYrVABSgAdgWlmORvc1qAjO0lVpI+c2SJEryL52Ry0/voffsRpViNQAFaAD2hQ2HCBt+6j1HpdS+ym+Tdfqs9sC4yyPoPcdRpVgNQAEagHlgnTcfOSMMowNK7aD89hjlM11naP+Z9J7rqFKsBqAADcC8kExEI8TmLuYOKFWk/L6Yy2evhqUO3ZmV3jMeVYrVABSgAVgHdn9jaZFnpis1oPyGWsY+YX0PpboyvWc+qhSrAShAA7AmJCDReN2crd57B0qpW+U3wgifDp8dPE+zIc9e9N7BqFKsBqAADcBxIHzJlAE5BB5epE6pfPsk7TGH3w6Mko3pvZdRpVgNQAEagOPCSMcogTq08m1fju49QnoCeu9pVClWA1CABuBcECVgUyIaTE2BWkr5ZunsWZJHpMvR/aT03t2oUqwGoAANgLDUiUgBWdCsOHD6QO2qfIPtaGe+SUb2p99edyV673RUKVYDUIAGQHqQZMgIi3lUdi105YEqUb4tTstjzp7Onm/OJL3F6b3nUaVYDUABGgB5CjTONNKEYGmwGaW5i6F6UPlGOB2Pb4Wpp5ac5yY7B6X3DYwqxWoACtAAyLUgTEvDjjFgnpYG3x0NT6K86xa2J2LEN/Bd5MY6J6T3fYwqxWoACtAAyBYw2sMcMJ9L53CThIh634+aT3lXhOp5Z5g73iHJpLxT5+flL/S+n1GlWA1AARoAmQVGi3QodCx0MIwkb0xC5DRDkfJsW3gesYcEz76F6ZHIk+h9Z6NKsRqAAjQAshps3do6J0SH1UQyWevMTpe4mHtuo3TEio7LZ0NIvj0zj7KVMnrf5qhSrAaggCoD4P7aMist0nCpltR4n+hMW8daod41my5H45cSmZJenzCqFKsBKKDKALgjl4jICen1CaNKsRqAAqoMgIlBIiLn4x+9PmFUKVcDUECVATBEKSJyPl70+oRRpVwNQAFVBsCXJSJyPuxTFqLqZZG8JCIi5+LHXp8wKsq9LV6uSZUBIGtaRETOxetenzCqlKsBKKDKALAtqIiInIuPvT5hVClXA1BAiQFAKduVACIi56FkBQBK2RqAAioNABuYiIjIOfih1xdcQylbA1BApQFgW1IRETkHb3t9wTWUsjUABZQZAJTyPfNbROT4cL7EH71+4BpK2RqAAqoNgMsBRUSOT8nyvybKv72MXJNqA/B75MFAIiLHpiT7vynlawAKKDUAKNfgpDURETkm3/fa/msq19AAFLCFATAKICJyXEpH/yjX0AAUUG4AUK7jkkARkeNROvffxHVuLyfXZCsD8EfkigARkePwz+hLr82/tnIdDUABmxgAlGt9uL2kiIgcgHe9tr5CuZYGoIDNDADK9ZwKEBFZn01C/01c7/ayck22NgBMBXhGgIjIuryINgn9N+V6GoACNjUAKNf8HLFrlIiIrAUruj702vZK5ZoagAI2NwAo131/e3kREVmIkvP+v6ZcVwNQwC4GAOXar26rICIiC/Bzry3fQrm2BqCA3QwAyvV9qSIi8/NdVHbYz9eUa9tXFLCrAUCpgy9WRGRedu38Ua5vP1HA7gYApR6+XBGR+di980epg31EAVMYAJS6/HBbJRERmYApOn+UemgACpjGAKDUx5MDRUT2hwHZFJ0/Sl00AAVMZQBQ6uTqABGR/dgt2/8+pU4agAKmMwAo9XoTeYSwiMi2vOq1yXsr9dIAFDClAUCpG4cHcdqUiIjUwu6sb3tt8QxK3TQABUxrAFDq9zt1vKmpiIhUwPksn3pt8CxK/TQABUxtAJpST5MDRUSuz1TJfvcpddQAFLCEAUCpK3kBHiIkIjIOOVa/9draGZW6agAKWMYAoNSXKQHWpoqIyPP4Jpo65H9Xqa8GoIClDEBT6v06MhogIvJ4GPW/7LWpsyv11gAUsKQBQKm7CYIiIo9juVH/pVJ3DUAByxqAptwD0QCXC4qI/B0ipUuO+i+Ve9AAFLC8AUC5jy/RTzd3JCIi8H30e6/NXE25Dw1AAYcwAE25HzYPYk2riMhZeRG967WRqyr3owEo4FAGoCn35bSAiJwN2rwpt/IdVe5LA1DAIQ0Ayr39Eb2MXC0gIkeG7P5foy+9tvAIyr1pAAooMQAp99fef99DqQv5Aewk6OFCInI0yH2aZp4/dSnZXCjlagAKqDIAMNt50iwb/CUyIiAiK8Ngho7/c6+t20upz82W7b3/N6oUqwEooNIAAGtPpwpLUZ+IcJk5AiKyEgxe6GSnyuxPfZhuZcXBDb2/GVWK1QAUUG0AgIzU6TagSJ34aF9FGgERmRk6/inn+FMnIqt/WXnV+7tRpVgNQAFbGADgA37f+9sZlLqxagCjIiIyCzdZ/dGUp/WlXh+jv7Wbvb8dVYrVABSwlQEA5q1e9/5+FqV+nDjoPgIisid0qgxKpj2mN3V7F3XzqXp/P6oUqwEoYEsD0CB5Zerzp1O/t5GnDorIlpAzNfUgCaWOTEfcS+/fjCrFagAK2MMAwL+i6Q+mSB0/R+wl4PSAiFRAmJ/VSSu0h8z3Y1IepPdvR5ViNQAF7GUAYPopgUulroS8WNooIjIKEcY3vbZmRqWu94b879L796NKsRqAAvY0AA061WV2sEpdccFGBUTkqbTR/lTr9x9S6spqqZv1/Y+lV86oUqwGoIAZDADQmX7olTWzUuf3ER+muwyKyH0wyHnba0NmVur8KXpyUnSvrFGlWA1AAbMYgMaS51an3mwu9FvkCgIRAfKciBQueRxv6s0qhGcNbHrljSrFagAKmM0AAJ3octGAptSdxEHW7moGRM4FnT4Z8tMn9N0n6h59Gz2bXrmjSrEagAJmNAANlgsufbpV6o8ZIDIw9IMSkWnB6GP4l+30UerPXD/mZXg6s1f+qFKsBqCAmQ0AkDSzTKbsQ8p9kDyoGRBZn9bpL5PM95ByH+QyEb24Cr1rjCrFagAKmN0ANFgys7TDvlTuRTMgshaH6vRR7oXcpat3rL1rjSrFagAKWMUAAKEpkmqm3kXwqcr9YAZIuCFT+FHrbEWkHNobTrjDqB+m02/KPdHmlLQ3veuNKsVqAApYyQA0WDJ4iGmBnnJvHyKMzld33BKRq8Ion3X60x5cNiruLSptW3rXHVWK1QAUsKIBaPBjPewPFeX+CNFxLgEJkW48JHJdyDGiY+EQsCWX6z1WuT9O7vvPmf2V9K4/qhSrAShgZQPQID/gY68eR1PukyU6zEPyQ3bzIZGnQ3tBhO0sbQZTjJt2nr16jCrFagAKOIIBaPCBHNrF31Xul/25CVmaTCjSh3A3W9kSSTtU/tBDyr0SPaRt2Hyg0KvPqFKsBqCAIxkA4GPno196/4DnKvdN/gARAhIKnTKQs0FIn+gYI/xDTw/ep9w36/lpA3ZLKO7Va1QpVgNQwNEMQIOPHyNwqojAXXH/ESMfowRyRNronjn8w2XqP0W5/9bxY4J2pVe/UaVYDUABRzUADSICNBCnbhwulWdhlEBWBFPP/D271Z1ydN9TngWhfp7JNEuIe/UcVYrVABRwdANwCR+QRuCO8kyIErA0iEaEZ+TyQ9kbVvgQyuebJM/F3+0d5Znwu2VwM10ycK++o0qxGoACzmQAGjQsp8gAHhHPKCK0SiPM9IHRArk2jFr5tpiiYmOaZQ8B20p5RpwvQmc47SqgXr1HlWI1AAWc0QA0CCcaSnyC8ryYZyRawBQCexOYVyCPhcgSjfhNgl50ykTd5yrPC0POtN309Oo/qhSrASjgzAagwSEYbPdpg/RM5dm1aQSeIxEDoiyag/NBJ9/m6TGJfBOG75+pPDsMN5GRpablevcyqhSrAShAA/BfCKnxkTk9cEXleZKkREdAQ3ZpDqYNYcqD8O5aJ4/h492eerXNtZXnSZifaZFpEvueQu+eRpViNQAFaAD64LjpsE6zccge4vlGdCAt1wDRudDJmHOwPSwh49mj9j74HfCOjJAVK8+Y3wHf/9L07m1UKVYDUIAG4GFw4Mx1G8bcUXn+dECoTTG0fQ3QkqOkjSHa0p4XmeM8wxaiRxrdnZRnz/QZeRGHMby9+xxVitUAFKABeDw0noyGHAlNKN5L1Dq0pjaKbSKJqnWEiPyPVaCDuKx7WyZ3KZbMXd6/oflJlXfDaH+JpL6n0rvfUaVYDUABGoDnwQ+XH7AjpwOJ9xlddqBfU4tIPEaXI+7HyG/rYPrzvdKRHTpq1bv3UaVYDUABGoAx+CHzYbqcUCn1N6VtYPke0y67b9G7Fb3nMKoUqwEoQANwPfiB80N3FYFSJ1baALL4mddfaYrpavSeyahSrAagAA1ADfzwSVTTDCh1AuW3/ilimodtjE9N7/mMKsVqAArQANRDZICVBKc6j1ypoyu/Zw7WIup3ypH+ffSe1ahSrAagAA3AtrAci+xtVhOYoa3UQspvliRRkn/pjFx+eg+9ZzeqFKsBKEADsC9sOETY8FPvOSql9lV+m6zTZ7UHxl0eQe85jirFagAK0ADMA+u8+cgZYRgdUGoH5bfHKJ/pOkP7z6T3XEeVYjUABWgA5oVkIhohNncxd0CpIuX3xVw+ezUsdejOrPSe8ahSrAagAA3AOrD7G0uLPDNdqQHlN9Qy9gnreyjVlek981GlWA1AARqANSEBicbr5mz13jtQSt0qvxFG+HT47OB5mg159qL3DkaVYjUABWgAjgPhS6YMyCHw8CJ1SuXbJ2mPOfx2YJRsTO+9jCrFagAK0AAcF0Y6RgnUoZVv+3J07xHSE9B7T6NKsRqAAjQA54IoAZsS0WBqCtRSyjdLZ8+SPCJdju4npffuRpViNQAFaACEpU5ECsiCZsWB0wdqV+UbbEc7800ysj/99ror0Xuno0qxGoACNADSgyRDRljMo7JroSsPVInybXFaHnP2dPZ8cybpLU7vPY8qxWoACtAAyFOgcaaRJgRLg80ozV0M1YPKN8LpeHwrTD215Dw32TkovW9gVClWA1CABkCuBWFaGnaMAfO0NPjuaHgS5V23sD0RI76B7yI31jkhve9jVClWA1CABkC2gNEe5oD5XDqHmyRE1Pt+1HzKuyJUzzvD3PEOSSblnTo/L3+h9/2MKsVqAArQAMgsMFqkQ6FjoYNhJHljEiKnGYqUZ9vC84g9JHj2LUyPRJ5E7zsbVYrVABSgAZDVYOvW1jkhOqwmkslaZ3a6xMXccxulI1Z0XD4bQvLtmXmUrZTR+zZHlWI1AAVUGQD315ZZaZGGS7WkxvtEZ9o61gr1rtl0ORq/lMiU9PqEUaVYDUABVQbAHblERE5Ir08YVYrVABTwovewR5VyTQwSETkf/+j1CaNKuRqAAqoMgCFKEZHzUdWnkMMiV0a3JiIi16JqWtlBZQW9hz2qFEvykoiInIsfe33CqFKum0oVcfXd2lImWdMiInIuXvf6hFGlXJeuFvGu98BHlDLZFlRERM7Fx16fMKKU+ftt0VLBq95DH1XKdSWAiMh5qMopM6JcyE+9hz6qlMsGJiIicg5+6PUFo0q5nB0iRXzTe+ijSrlsSyoiIufgba8vGFXK5XwQKYJte//oPfhRpVzP/BYROT4k6dmPLEqVc3M5oIjI8ala/sdplVJMVR4A2ZseDCQicmyunv2PUi7HgksxJds3opTNSWsiInJMvu+1/dcQZd9eQqr53HsBo0q5RgFERI5L1ej/j8gNgDbil95LuIYo+/YSIiJyIErm/lHKfnN7CdmCf/ZewjWUsnFyZnKKiByHf0Zfem3+NZSyPQFwY66+LXBTyv5wewkRETkAlf2F2//uQMlOTk0p36kAEZH1KQv9o5T/8vYysiUk6139dMCmlM1UgGcEiIisy4uoMvRPP8H0guzAz72Xci2lfDZ2MLNTRGQ9GCR+6LXt11LKd+//HSmNAqCU//7mSiIishIl5/03pXxH/xNQGgVAuYYuT0RkHewXTkJ5FADlGj/eXE1ERGaGJXklh/00UX7k6H8SSlcENOU6mgARkXkp7/xRrmHm/2S8772oayvX0QSIiMzHVp2/W8ZPCLv3lb98lOv8cHNFERGZgU06f5TreOjPpPzae2EVyrU8OVBEZH8YkG3V+b+9uaJMCWGZkpMCe8q1zAIVEdmP8mz/plzLxL8F+CbaxA2iXItToJwPEhHZlle9NrlKuZ75X4uwmStEuR6HB+kMRUTqYXfWt722uEq53uubK8sybP2BkBn67c2VRUSkAs5n+dRrg6vE9SKjvIuBS9wsH6Ap1zQ5UETk+myW7NfE9SJWmMmCbJoP0JRrkhfgIUIiIuMw+v6t19ZWK9d1yffifN97sdXKdZkSYG2qiIg8DwZxm4b8m3LdX29qIMvzS+8Fb6Fcm+QRowEiIo+HUf/LXpu6hXJtorhyIHYJIaFc2wRBEZHHsduoH+XaHAFv0t/B4IW+673wrZTrEw1wuaCIyN8hUrrbqB/l+h//rIcckBlMwJfoJyojIiI3sL9++bHuDynXt/M/AbubAJQ6sHkQa1pFRM7Ki2iG9tjO/0RMYQJQ6uG0gIicDdq8TbfyvU+ph53/CZnJBLDZxMvIj1BEjgztLsvrvvTawq2Vetj5nxg+xte9D2MPpS7kB7CTIPUSETkS5D7tOs9/qdTFzl9umCIU1ZT6sGzwl8iPU0RWhsEMHf/m27I/pNTn3Z91E7lht82C7lPqRESAcJk5AiKyEgxeiGZOM+JvSp3Iu7Lzl7/xY++D2VupFzkCryKNgIjMDB3/NHP8d5V6kWslci/s2Dflx4tSN9wrS2dERGbhJqs/2vzwtceIekU/RiJfhY/5Q+9DmkWpH3tVu4+AiOwJgxEGJVN2/Ch1+xzZVsqTYI5ot/MDHqvU8W3kqYMisiXs1z/NCqr7lDqS7GcytTwbMlindbdNqSMul/ktpwdEpAIio6xO2u2gnqco9fQ4X7kKhI+W+OhR6orr/YGKi4gMQoTxTa+tmVGpq6evytVhSmCq/QK+ptSXH4JRARF5Km20P9X6/a8p9SUfwZC/lIEbnm5t69eUOnPGNVmwrn8Vkfsgcvi214bMrNSZPVPM8pdNwGEu9yNBqTc/lN8is2JFBP4VESlcbmCDUm9OVnWPFNmc3c+wHlHqTuIga3c1AyLngk6fJLllcpvuKnVnMEOStshuEA2Yfrng15R7wAwQGTB5RuSYYPQx/Mt2+k25BxKdHfXLNLAudvkfFsp9kDyoGRBZn9bpL5XMd59yH7RNRF5FpoMEOzJnp9834LHKvWgGRNbiUJ1+U+6HdsgMf5keQlPLrJt9rHJPmAGW2ZAp7A9RZA4YeDAqpoM8VKePck+sYDJPSZaDaYGPvY/6CMq9kX1L9jD3KSLbQYdItPF977d5BOXeDPfLISBTddnVAo9R7o+MXM4l4F7deEjkuhBVZJ07h4AdvS3h5D5WKLhniRwGQuZ81IfJD3hIuc9PEfOQOHh/yCJPh03HiLAdNop4V7lXphjN7pfDwsdNx3gKI9CU+2XZDiFLkwlF+jCV9nNEJO1s7QP3bORQTsPNOdq9H8MZlHsnfwAjREKhP3w5GwwEiI4xwj/sPP7XlHun4zfBT04LH/+S2wpfU3kGJPzQGBglkCPSRvfM4R8uU/+pyjMgs9/fucifsDXnaSMCPeV5GCWQFSHfh/l7cn5OO7rvKc8Dk++qIZF7OGWOwGOUZ0KUgJEDDSsZ0TYksjdE8Ajl802S53L60X1PeS4k9zHIEZFH0FYNfOn9oNR/lWf0MSK0yvMirGi0QK4Nv0e+Laao6Mw+9L5F9V/lGbGcj82J/D2KPBOW0DHatcF5gvK8aHyIFhBNYW8C5xvlsRBZ4jd3k6AXacKfoDwvDhbDKLmcT+SK3OQJRE4PPFN5dm0agZEJEQPCt5qD80En3+bpMYl8E4bvB5TnRxSOZyoihRCOZFR7iNMHZ1GeJ7sZ0hFgsi7NgRsZrQnvrnXyGD7e7aF30dtaeZ6O9kV2hJGMUYFi8XwjOpCWa4DoXOhknOPcHjocnj1q74PfAe/IkH2x8owd7YtMBFEB1hkbxtxRef50QKhNMbR9DRDvSB6GaEt7XnzPPMMWokca3Z2UZ8/0GXkRGl6RicGZH+444qMo76ZNNVyqjWKb2PugdYRopSVUdBCXdW/L5C7FkrnL+zc0P6n+fFd8jyKyEIRJyRVwM5KDKe+0TUk8Vi0i8RhdjrgfI0flB1PeKUtricA42hc5AJoBpdS9Sttgpy9yApoZcG8BpU6stAF2+iInhh8+DcBpzhxX6szKb/1TxFSPW/OKyH/QDCh1QOU3bacvIo+mmQGnCZRaUPntEt630xeRIVibzVIussPdfVCpCZXfJrvysdqDJXvuOSEiJRAd4LAUdgNz/bZSOyi/PfaT4Hx9Enod5YvILnAmOjveves1VEqp6yi/sQ8RYX22ABcRmQ52ImS6wGRCpQaU3xDJe4T1mYLzUCoRWQr2HGC6AENgQqFSDyi/ERL36PD5zbg2X0QOB+FLVhiQQ2BSoTql8u2TtMccfjswSkTkdJCx3M5t5+ARj3NVh1K+6XZ2A9844XwiYyIi0oGsZpYzOXWgllO+2ctQPkmyIiIyQJs6aKfVuQRR7ap8g+1oZzp7Q/kiIhtCZjSNLmuhCa/SGH/uNdZKPVf5pn7/89t6GWFC+ebcbEdEZFJopJlGaLkFLktUDyrfCMvu2lw94Xu+IZffiYgcBOZkScSikX8d0eBrDk6ivOvWybMKhW8Ak+jGOiIicjPqQ8zp0kHQUdBhuGRxcuUdsbSOd8XyOt4dau/TkbyIiAzR8g56JsH8gyLxbP98xr3O3fl4ERGZCqYbWieFWseF2mqGpsOvasg9tqz5JrLnL58J+0G0Z2VYXkRETgkd4KV5QC134TG6azCeo7sd9ENiLv1ufZGIiIiIiIiIiIiIiIiIiIiIiIiIiIiIiIiIiIiIiIiIiIiIiIiIiIiIiIiIiIiIiIiIiIiIiIiIiIiIiIiIiIiIiIiIiIiIiIiIiIiIiIiIiIiIiIhIFf/zP/8f9Ap4DoDaIcAAAAAASUVORK5CYII=;fillColor=#CCCCFF;" vertex="1" parent="1">
          <mxGeometry x="480" y="330" width="130" height="130" as="geometry" />
        </mxCell>
        <mxCell id="-RhzpEMc9GSsOyCqDzCZ-14" value="" style="edgeStyle=orthogonalEdgeStyle;rounded=0;orthogonalLoop=1;jettySize=auto;html=1;" edge="1" parent="1" source="-RhzpEMc9GSsOyCqDzCZ-6" target="-RhzpEMc9GSsOyCqDzCZ-13">
          <mxGeometry relative="1" as="geometry" />
        </mxCell>
        <mxCell id="-RhzpEMc9GSsOyCqDzCZ-19" value="Start Migration&amp;nbsp;&lt;div&gt;Order&lt;/div&gt;" style="edgeLabel;html=1;align=center;verticalAlign=middle;resizable=0;points=[];" vertex="1" connectable="0" parent="-RhzpEMc9GSsOyCqDzCZ-14">
          <mxGeometry x="-0.1556" y="-1" relative="1" as="geometry">
            <mxPoint as="offset" />
          </mxGeometry>
        </mxCell>
        <mxCell id="-RhzpEMc9GSsOyCqDzCZ-16" style="edgeStyle=orthogonalEdgeStyle;rounded=0;orthogonalLoop=1;jettySize=auto;html=1;exitX=0.5;exitY=0;exitDx=0;exitDy=0;entryX=0.5;entryY=0;entryDx=0;entryDy=0;" edge="1" parent="1" source="-RhzpEMc9GSsOyCqDzCZ-6" target="-RhzpEMc9GSsOyCqDzCZ-4">
          <mxGeometry relative="1" as="geometry" />
        </mxCell>
        <mxCell id="-RhzpEMc9GSsOyCqDzCZ-17" value="Query Execution" style="edgeLabel;html=1;align=center;verticalAlign=middle;resizable=0;points=[];" vertex="1" connectable="0" parent="-RhzpEMc9GSsOyCqDzCZ-16">
          <mxGeometry x="-0.1549" y="3" relative="1" as="geometry">
            <mxPoint x="11" y="3" as="offset" />
          </mxGeometry>
        </mxCell>
        <mxCell id="-RhzpEMc9GSsOyCqDzCZ-6" value="Orchestrator" style="rounded=1;whiteSpace=wrap;html=1;absoluteArcSize=1;arcSize=14;strokeWidth=2;fillColor=#FF9933;" vertex="1" parent="1">
          <mxGeometry x="290.25" y="290" width="140" height="75" as="geometry" />
        </mxCell>
        <mxCell id="-RhzpEMc9GSsOyCqDzCZ-12" value="" style="edgeStyle=orthogonalEdgeStyle;rounded=0;orthogonalLoop=1;jettySize=auto;html=1;entryX=0;entryY=0.5;entryDx=0;entryDy=0;" edge="1" parent="1" source="-RhzpEMc9GSsOyCqDzCZ-10" target="-RhzpEMc9GSsOyCqDzCZ-6">
          <mxGeometry relative="1" as="geometry">
            <mxPoint x="360" y="290" as="targetPoint" />
          </mxGeometry>
        </mxCell>
        <mxCell id="-RhzpEMc9GSsOyCqDzCZ-27" style="edgeStyle=orthogonalEdgeStyle;rounded=0;orthogonalLoop=1;jettySize=auto;html=1;entryX=0.5;entryY=0;entryDx=0;entryDy=0;" edge="1" parent="1" source="-RhzpEMc9GSsOyCqDzCZ-10" target="-RhzpEMc9GSsOyCqDzCZ-22">
          <mxGeometry relative="1" as="geometry" />
        </mxCell>
        <mxCell id="-RhzpEMc9GSsOyCqDzCZ-10" value="Configuration&amp;nbsp;&lt;div&gt;File&lt;/div&gt;" style="shape=parallelogram;html=1;strokeWidth=2;perimeter=parallelogramPerimeter;whiteSpace=wrap;rounded=1;arcSize=12;size=0.23;fillColor=#E6E6E6;" vertex="1" parent="1">
          <mxGeometry x="80" y="292.5" width="140.5" height="70" as="geometry" />
        </mxCell>
        <mxCell id="-RhzpEMc9GSsOyCqDzCZ-15" style="edgeStyle=orthogonalEdgeStyle;rounded=0;orthogonalLoop=1;jettySize=auto;html=1;entryX=0.5;entryY=1;entryDx=0;entryDy=0;exitX=0.5;exitY=1;exitDx=0;exitDy=0;" edge="1" parent="1" source="-RhzpEMc9GSsOyCqDzCZ-13" target="-RhzpEMc9GSsOyCqDzCZ-4">
          <mxGeometry relative="1" as="geometry" />
        </mxCell>
        <mxCell id="-RhzpEMc9GSsOyCqDzCZ-18" value="Benchmark&#39;s&lt;div&gt;Data definition&lt;/div&gt;" style="edgeLabel;html=1;align=center;verticalAlign=middle;resizable=0;points=[];" vertex="1" connectable="0" parent="-RhzpEMc9GSsOyCqDzCZ-15">
          <mxGeometry x="-0.1054" y="-1" relative="1" as="geometry">
            <mxPoint as="offset" />
          </mxGeometry>
        </mxCell>
        <mxCell id="-RhzpEMc9GSsOyCqDzCZ-13" value="Benchmark&lt;div&gt;Generator&lt;/div&gt;" style="rounded=1;whiteSpace=wrap;html=1;absoluteArcSize=1;arcSize=14;strokeWidth=2;fillColor=#C3ABD0;" vertex="1" parent="1">
          <mxGeometry x="290.25" y="440" width="140" height="75" as="geometry" />
        </mxCell>
        <mxCell id="-RhzpEMc9GSsOyCqDzCZ-24" value="" style="edgeStyle=orthogonalEdgeStyle;rounded=0;orthogonalLoop=1;jettySize=auto;html=1;entryX=0;entryY=0.75;entryDx=0;entryDy=0;" edge="1" parent="1" source="-RhzpEMc9GSsOyCqDzCZ-22" target="-RhzpEMc9GSsOyCqDzCZ-6">
          <mxGeometry relative="1" as="geometry">
            <Array as="points">
              <mxPoint x="250" y="480" />
              <mxPoint x="250" y="346" />
            </Array>
          </mxGeometry>
        </mxCell>
        <mxCell id="-RhzpEMc9GSsOyCqDzCZ-25" value="&lt;div&gt;Menu&lt;/div&gt;&lt;div&gt;Selection&lt;/div&gt;" style="edgeLabel;html=1;align=center;verticalAlign=middle;resizable=0;points=[];" vertex="1" connectable="0" parent="-RhzpEMc9GSsOyCqDzCZ-24">
          <mxGeometry x="-0.1075" y="2" relative="1" as="geometry">
            <mxPoint as="offset" />
          </mxGeometry>
        </mxCell>
        <mxCell id="-RhzpEMc9GSsOyCqDzCZ-22" value="Console" style="rounded=1;whiteSpace=wrap;html=1;absoluteArcSize=1;arcSize=14;strokeWidth=2;fillColor=#FFE599;" vertex="1" parent="1">
          <mxGeometry x="80" y="440" width="140" height="75" as="geometry" />
        </mxCell>
      </root>
    </mxGraphModel>
  </diagram>
</mxfile>
